<svg width="46" height="87" viewBox="0 0 46 87" fill="none" xmlns="http://www.w3.org/2000/svg">
<g clip-path="url(#clip0_5:2)">
<path d="M41.1317 2.24702L1.53372 41.845C0.752672 42.6261 0.752672 43.8924 1.53372 44.6734C2.31477 45.4545 3.5811 45.4545 4.36215 44.6734L43.9601 5.07545C44.7412 4.2944 44.7412 3.02807 43.9601 2.24702C43.1791 1.46598 41.9127 1.46598 41.1317 2.24702Z" fill="#FFCC00"/>
<path d="M43.8406 82.0122L4.24258 42.4142C3.46153 41.6332 2.1952 41.6332 1.41416 42.4142C0.633107 43.1953 0.633107 44.4616 1.41416 45.2426L41.0121 84.8406C41.7932 85.6217 43.0595 85.6217 43.8406 84.8406C44.6216 84.0596 44.6216 82.7932 43.8406 82.0122Z" fill="#FFCC00"/>
</g>
<defs>
<clipPath id="clip0_5:2">
<rect width="46" height="87" fill="white"/>
</clipPath>
</defs>
</svg>
