<svg width="46" height="87" viewBox="0 0 46 87" fill="none" xmlns="http://www.w3.org/2000/svg">
<g clip-path="url(#clip0_5:2)">
<path d="M4.8683 84.753L44.4663 45.155C45.2473 44.3739 45.2473 43.1076 44.4663 42.3266C43.6852 41.5455 42.4189 41.5455 41.6379 42.3266L2.03987 81.9245C1.25882 82.7056 1.25882 83.9719 2.03987 84.753C2.82092 85.534 4.08725 85.534 4.8683 84.753Z" fill="#FFCC00"/>
<path d="M2.15944 4.9878L41.7574 44.5858C42.5385 45.3668 43.8048 45.3668 44.5858 44.5858C45.3669 43.8047 45.3669 42.5384 44.5858 41.7574L4.98787 2.15938C4.20682 1.37833 2.94049 1.37833 2.15944 2.15938C1.37839 2.94043 1.37839 4.20676 2.15944 4.9878Z" fill="#FFCC00"/>
</g>
<defs>
<clipPath id="clip0_5:2">
<rect width="46" height="87" fill="white" transform="translate(46 87) rotate(-180)"/>
</clipPath>
</defs>
</svg>
